<svg width="900" height="1100" viewBox="0 0 900 1100" fill="none" xmlns="http://www.w3.org/2000/svg">
  <ellipse cx="447" cy="1024" rx="244" ry="44" fill="black" fill-opacity="0.35"/>
  <ellipse cx="447" cy="1010" rx="195" ry="30" fill="#2D0807"/>
  <circle cx="450" cy="218" r="120" fill="#101010"/>
  <circle cx="450" cy="218" r="104" fill="url(#helmetGlow)"/>
  <path d="M349 213C349 160.533 391.533 118 444 118H450C502.467 118 545 160.533 545 213V266H349V213Z" fill="#FF3A1A"/>
  <path d="M352 269H548C533 332 499 380 450 380C401 380 367 332 352 269Z" fill="#141414"/>
  <path d="M385 194C399 172 422 159 450 159C478 159 501 172 515 194V225C515 269 486 313 450 313C414 313 385 269 385 225V194Z" fill="#E7B08F"/>
  <path d="M385 212C385 180 411 154 443 154H458C490 154 515 180 515 212V215C503 202 482 196 460 196H420C406 196 393 202 385 212V212Z" fill="#171717"/>
  <path d="M414 244C429 255 473 255 488 244" stroke="#8A4B32" stroke-width="8" stroke-linecap="round"/>
  <path d="M411 209H490" stroke="#2A2A2A" stroke-width="14" stroke-linecap="round"/>
  <path d="M372 355C402 324 426 314 450 314C474 314 499 324 528 355L588 418C621 453 639 499 639 546V688H261V546C261 499 279 453 312 418L372 355Z" fill="url(#jacket)"/>
  <path d="M318 480L256 661L222 853" stroke="#111111" stroke-width="40" stroke-linecap="round"/>
  <path d="M582 480L644 661L678 853" stroke="#111111" stroke-width="40" stroke-linecap="round"/>
  <path d="M346 436L403 558" stroke="#D31312" stroke-width="16" stroke-linecap="round"/>
  <path d="M554 436L497 558" stroke="#D31312" stroke-width="16" stroke-linecap="round"/>
  <path d="M276 698C276 661.549 305.549 632 342 632H558C594.451 632 624 661.549 624 698V750H276V698Z" fill="#0E0E0E"/>
  <path d="M311 704C311 686.327 325.327 672 343 672H557C574.673 672 589 686.327 589 704V758H311V704Z" fill="#191919"/>
  <path d="M242 774C242 733.131 275.131 700 316 700H584C624.869 700 658 733.131 658 774V911H242V774Z" fill="url(#scooterBody)"/>
  <ellipse cx="450" cy="846" rx="90" ry="111" fill="#F0F0F0"/>
  <ellipse cx="450" cy="846" rx="72" ry="93" fill="url(#headlamp)"/>
  <ellipse cx="450" cy="846" rx="40" ry="56" fill="#FFFEFC"/>
  <path d="M375 781H525" stroke="#920B0B" stroke-width="20" stroke-linecap="round"/>
  <path d="M316 734L252 701" stroke="#1A1A1A" stroke-width="18" stroke-linecap="round"/>
  <path d="M584 734L648 701" stroke="#1A1A1A" stroke-width="18" stroke-linecap="round"/>
  <path d="M252 701L208 732" stroke="#1A1A1A" stroke-width="12" stroke-linecap="round"/>
  <path d="M648 701L692 732" stroke="#1A1A1A" stroke-width="12" stroke-linecap="round"/>
  <path d="M203 733V683" stroke="#1A1A1A" stroke-width="10" stroke-linecap="round"/>
  <path d="M697 733V683" stroke="#1A1A1A" stroke-width="10" stroke-linecap="round"/>
  <ellipse cx="202" cy="662" rx="41" ry="47" fill="url(#mirror)"/>
  <ellipse cx="698" cy="662" rx="41" ry="47" fill="url(#mirror)"/>
  <path d="M355 716L302 774" stroke="#111111" stroke-width="28" stroke-linecap="round"/>
  <path d="M545 716L598 774" stroke="#111111" stroke-width="28" stroke-linecap="round"/>
  <path d="M296 777L273 941" stroke="#111111" stroke-width="26" stroke-linecap="round"/>
  <path d="M604 777L627 941" stroke="#111111" stroke-width="26" stroke-linecap="round"/>
  <path d="M301 775C324 768 343 772 360 789" stroke="#202020" stroke-width="8" stroke-linecap="round"/>
  <path d="M599 775C576 768 557 772 540 789" stroke="#202020" stroke-width="8" stroke-linecap="round"/>
  <path d="M407 355C422 376 434 385 450 385C466 385 478 376 493 355" stroke="#FF755F" stroke-width="8" stroke-linecap="round"/>
  <path d="M344 615C374 642 398 670 413 700" stroke="#111111" stroke-width="34" stroke-linecap="round"/>
  <path d="M556 615C526 642 502 670 487 700" stroke="#111111" stroke-width="34" stroke-linecap="round"/>
  <path d="M343 621C343 592 367 568 396 568H404C433 568 457 592 457 621V652H343V621Z" fill="#101010"/>
  <path d="M443 621C443 592 467 568 496 568H504C533 568 557 592 557 621V652H443V621Z" fill="#101010"/>
  <defs>
    <linearGradient id="helmetGlow" x1="450" y1="114" x2="450" y2="322" gradientUnits="userSpaceOnUse">
      <stop stop-color="#FF593C"/>
      <stop offset="1" stop-color="#C70A0A"/>
    </linearGradient>
    <linearGradient id="jacket" x1="450" y1="314" x2="450" y2="688" gradientUnits="userSpaceOnUse">
      <stop stop-color="#FF4525"/>
      <stop offset="0.42" stop-color="#E50C0C"/>
      <stop offset="1" stop-color="#8E0505"/>
    </linearGradient>
    <linearGradient id="scooterBody" x1="450" y1="700" x2="450" y2="911" gradientUnits="userSpaceOnUse">
      <stop stop-color="#FF3822"/>
      <stop offset="0.5" stop-color="#DB0E0E"/>
      <stop offset="1" stop-color="#8B0404"/>
    </linearGradient>
    <radialGradient id="headlamp" cx="0" cy="0" r="1" gradientUnits="userSpaceOnUse" gradientTransform="translate(450 820) rotate(90) scale(119 95.9256)">
      <stop stop-color="#FFFBEF"/>
      <stop offset="1" stop-color="#C7D0D8"/>
    </radialGradient>
    <radialGradient id="mirror" cx="0" cy="0" r="1" gradientUnits="userSpaceOnUse" gradientTransform="translate(194 647) rotate(39.7248) scale(64.1398 55.5882)">
      <stop stop-color="#575D69"/>
      <stop offset="1" stop-color="#181C23"/>
    </radialGradient>
  </defs>
</svg>
